<?xml version="1.0" encoding="UTF-8" standalone="no"?>
<!-- Created with Inkscape (http://www.inkscape.org/) -->

<svg
   xmlns:dc="http://purl.org/dc/elements/1.1/"
   xmlns:cc="http://creativecommons.org/ns#"
   xmlns:rdf="http://www.w3.org/1999/02/22-rdf-syntax-ns#"
   xmlns:svg="http://www.w3.org/2000/svg"
   xmlns="http://www.w3.org/2000/svg"
   xmlns:sodipodi="http://sodipodi.sourceforge.net/DTD/sodipodi-0.dtd"
   xmlns:inkscape="http://www.inkscape.org/namespaces/inkscape"
   width="210mm"
   height="297mm"
   viewBox="0 0 744.09448819 1052.3622047"
   id="svg4744"
   version="1.1"
   inkscape:version="0.91 r13725"
   sodipodi:docname="tools.svg">
  <defs
     id="defs4746">
    <marker
       inkscape:stockid="Arrow1Sstart"
       orient="auto"
       refY="0"
       refX="0"
       id="Arrow1Sstart"
       style="overflow:visible"
       inkscape:isstock="true">
      <path
         inkscape:connector-curvature="0"
         id="path5328"
         d="M 0,0 5,-5 -12.5,0 5,5 0,0 Z"
         style="fill:#7b7b7b;fill-opacity:1;fill-rule:evenodd;stroke:#7b7b7b;stroke-width:1pt;stroke-opacity:1"
         transform="matrix(0.2,0,0,0.2,1.2,0)" />
    </marker>
    <marker
       inkscape:stockid="Arrow1Send"
       orient="auto"
       refY="0"
       refX="0"
       id="Arrow1Send"
       style="overflow:visible"
       inkscape:isstock="true">
      <path
         inkscape:connector-curvature="0"
         id="path5331"
         d="M 0,0 5,-5 -12.5,0 5,5 0,0 Z"
         style="fill:#7b7b7b;fill-opacity:1;fill-rule:evenodd;stroke:#7b7b7b;stroke-width:1pt;stroke-opacity:1"
         transform="matrix(-0.2,0,0,-0.2,-1.2,0)" />
    </marker>
  </defs>
  <sodipodi:namedview
     id="base"
     pagecolor="#ffffff"
     bordercolor="#666666"
     borderopacity="1.0"
     inkscape:pageopacity="0.0"
     inkscape:pageshadow="2"
     inkscape:zoom="0.35"
     inkscape:cx="-285"
     inkscape:cy="520"
     inkscape:document-units="px"
     inkscape:current-layer="layer1"
     showgrid="false"
     inkscape:window-width="1366"
     inkscape:window-height="715"
     inkscape:window-x="-8"
     inkscape:window-y="-8"
     inkscape:window-maximized="1" />
  <metadata
     id="metadata4749">
    <rdf:RDF>
      <cc:Work
         rdf:about="">
        <dc:format>image/svg+xml</dc:format>
        <dc:type
           rdf:resource="http://purl.org/dc/dcmitype/StillImage" />
        <dc:title></dc:title>
      </cc:Work>
    </rdf:RDF>
  </metadata>
  <g
     inkscape:label="Ebene 1"
     inkscape:groupmode="layer"
     id="layer1">
    <g
       id="g5304"
       transform="translate(337.14285,-480)">
      <rect
         y="500.36221"
         x="-317"
         height="64"
         width="64"
         id="rect4148"
         style="opacity:1;fill:#f01fe1;fill-opacity:1;stroke:none;stroke-width:8.30000019;stroke-linecap:round;stroke-linejoin:round;stroke-miterlimit:4;stroke-dasharray:none;stroke-dashoffset:0;stroke-opacity:1" />
      <path
         inkscape:connector-curvature="0"
         id="path4146"
         d="m -285.73442,515.19342 0,27.1587"
         style="fill:none;fill-rule:evenodd;stroke:#634506;stroke-width:8.30000019;stroke-linecap:butt;stroke-linejoin:miter;stroke-miterlimit:4;stroke-dasharray:none;stroke-opacity:1" />
      <path
         sodipodi:nodetypes="cscc"
         inkscape:connector-curvature="0"
         id="path4136"
         d="m -296.91284,503.41967 c 0,0 2.83521,11.91405 11.44209,11.91405 8.60689,0 10.32827,-11.83568 10.32827,-11.83568 z"
         style="fill:none;fill-rule:evenodd;stroke:#003399;stroke-width:3.88199997;stroke-linecap:round;stroke-linejoin:miter;stroke-miterlimit:4;stroke-dasharray:none;stroke-opacity:1" />
      <path
         inkscape:connector-curvature="0"
         id="path4138"
         d="m -300.43945,532.88672 0,20 a 15,10 0 0 0 15,10 15,10 0 0 0 15,-10 l 0,-20 -0.17774,0 a 15,6.8890262 0 0 1 -14.82226,5.8886 15,6.8890262 0 0 1 -14.82618,-5.8886 l -0.17382,0 z"
         style="opacity:1;fill:#808080;fill-opacity:1;stroke:none;stroke-width:3.4000001;stroke-linecap:round;stroke-linejoin:round;stroke-miterlimit:4;stroke-dasharray:none;stroke-dashoffset:0;stroke-opacity:1" />
    </g>
    <g
       id="g6140"
       transform="translate(-160,-620)">
      <rect
         y="640.36218"
         x="245.14285"
         height="64"
         width="64"
         id="rect4148-4"
         style="opacity:1;fill:#f01fe1;fill-opacity:1;stroke:none;stroke-width:8.30000019;stroke-linecap:round;stroke-linejoin:round;stroke-miterlimit:4;stroke-dasharray:none;stroke-dashoffset:0;stroke-opacity:1" />
      <path
         inkscape:connector-curvature="0"
         id="path4146-3"
         d="m 276.40844,655.19342 0,43.9433"
         style="fill:none;fill-rule:evenodd;stroke:#634506;stroke-width:10.55771923;stroke-linecap:butt;stroke-linejoin:miter;stroke-miterlimit:4;stroke-dasharray:none;stroke-opacity:1" />
      <rect
         y="656.80573"
         x="270.66949"
         height="6.2942376"
         width="10.840075"
         id="rect6087"
         style="opacity:1;fill:#ffcc00;fill-opacity:1;stroke:none;stroke-width:5;stroke-linecap:butt;stroke-linejoin:round;stroke-miterlimit:4;stroke-dasharray:none;stroke-dashoffset:0;stroke-opacity:1" />
      <path
         inkscape:connector-curvature="0"
         id="path5310"
         d="m 253.18549,662.75032 c 0,0 6.1194,-8.2175 22.7292,-8.5672 16.60979,-0.3497 23.95307,9.9659 23.95307,9.9659"
         style="fill:none;fill-rule:evenodd;stroke:#7b7b7b;stroke-width:6.0999999;stroke-linecap:butt;stroke-linejoin:miter;stroke-miterlimit:4;stroke-dasharray:none;stroke-opacity:1" />
      <path
         sodipodi:nodetypes="csc"
         inkscape:connector-curvature="0"
         id="path6070"
         d="m 257.73133,653.30892 c 0,0 9.26652,-4.19616 18.3582,-4.19616 9.09167,0 19.58207,4.89546 19.58207,4.89546"
         style="fill:none;fill-rule:evenodd;stroke:#404040;stroke-width:5;stroke-linecap:round;stroke-linejoin:miter;stroke-miterlimit:4;stroke-dasharray:none;stroke-opacity:1" />
    </g>
    <g
       id="g6280"
       transform="translate(65.714281,-440)">
      <rect
         y="457.50507"
         x="88"
         height="64"
         width="64"
         id="rect4148-6"
         style="opacity:1;fill:#f01fe1;fill-opacity:1;stroke:none;stroke-width:8.30000019;stroke-linecap:round;stroke-linejoin:round;stroke-miterlimit:4;stroke-dasharray:none;stroke-dashoffset:0;stroke-opacity:1" />
      <path
         inkscape:connector-curvature="0"
         id="path6173"
         d="m 114.92535,514.16178 0,-18.0085 16.26011,0 0,-15.7356 -15.73559,0 0,-6.8188"
         style="fill:none;fill-rule:evenodd;stroke:#7b7b7b;stroke-width:4.5;stroke-linecap:butt;stroke-linejoin:miter;stroke-miterlimit:4;stroke-dasharray:none;stroke-opacity:1" />
      <path
         inkscape:connector-curvature="0"
         id="path6175"
         d="m 112.73316,511.86998 4.46227,-2.4153"
         style="fill:none;fill-rule:evenodd;stroke:#404040;stroke-width:0.96799999;stroke-linecap:round;stroke-linejoin:miter;stroke-miterlimit:4;stroke-dasharray:none;stroke-opacity:1" />
      <path
         inkscape:connector-curvature="0"
         id="path6175-9"
         d="m 112.73307,509.06608 4.46227,-2.4153"
         style="fill:none;fill-rule:evenodd;stroke:#404040;stroke-width:0.96799999;stroke-linecap:round;stroke-linejoin:miter;stroke-miterlimit:4;stroke-dasharray:none;stroke-opacity:1" />
      <path
         inkscape:connector-curvature="0"
         id="path6175-3"
         d="m 112.77694,506.04238 4.46227,-2.4153"
         style="fill:none;fill-rule:evenodd;stroke:#404040;stroke-width:0.96799999;stroke-linecap:round;stroke-linejoin:miter;stroke-miterlimit:4;stroke-dasharray:none;stroke-opacity:1" />
      <path
         inkscape:connector-curvature="0"
         id="path6175-9-1"
         d="m 112.77685,503.23848 4.46227,-2.4153"
         style="fill:none;fill-rule:evenodd;stroke:#404040;stroke-width:0.96799999;stroke-linecap:round;stroke-linejoin:miter;stroke-miterlimit:4;stroke-dasharray:none;stroke-opacity:1" />
      <path
         inkscape:connector-curvature="0"
         id="path6222"
         d="m 112.6988,514.07528 1.90763,5.2209 2.51004,-5.3213 z"
         style="fill:#7b7b7b;fill-opacity:1;fill-rule:evenodd;stroke:none;stroke-width:1px;stroke-linecap:butt;stroke-linejoin:miter;stroke-opacity:1" />
      <rect
         y="483.25195"
         x="128.26105"
         height="10.241022"
         width="6.0240974"
         id="rect6224"
         style="opacity:1;fill:#cc0000;fill-opacity:1;stroke:none;stroke-width:0.96799999;stroke-linecap:round;stroke-linejoin:round;stroke-miterlimit:4;stroke-dasharray:none;stroke-dashoffset:0;stroke-opacity:1" />
      <rect
         y="461.26416"
         x="111.39358"
         height="13.755078"
         width="7.6305232"
         id="rect6224-3"
         style="opacity:1;fill:#cc0000;fill-opacity:1;stroke:none;stroke-width:0.96799999;stroke-linecap:round;stroke-linejoin:round;stroke-miterlimit:4;stroke-dasharray:none;stroke-dashoffset:0;stroke-opacity:1" />
    </g>
    <g
       id="g6364"
       transform="translate(-234.28571,-437.14285)">
      <rect
         y="454.64792"
         x="456.57144"
         height="64"
         width="64"
         id="rect4148-9"
         style="opacity:1;fill:#f01fe1;fill-opacity:1;stroke:none;stroke-width:8.30000019;stroke-linecap:round;stroke-linejoin:round;stroke-miterlimit:4;stroke-dasharray:none;stroke-dashoffset:0;stroke-opacity:1" />
      <path
         inkscape:connector-curvature="0"
         id="path6335"
         d="m 490.01337,491.07874 c 0,0 -1.95758,0.4894 -2.28384,-1.7945 -0.32626,-2.2838 3.0995,-7.504 3.0995,-7.504 0,0 2.28384,2.9364 2.28384,5.2202 0,2.2838 -3.0995,4.0783 -3.0995,4.0783 z"
         style="fill:#ff6600;fill-rule:evenodd;stroke:none;stroke-width:1px;stroke-linecap:butt;stroke-linejoin:miter;stroke-opacity:1" />
      <rect
         ry="2"
         rx="2"
         y="490.42612"
         x="486.58762"
         height="18.596983"
         width="6.6883883"
         id="rect6333"
         style="opacity:1;fill:#ffffff;fill-opacity:1;stroke:none;stroke-width:0.96799999;stroke-linecap:round;stroke-linejoin:round;stroke-miterlimit:4;stroke-dasharray:none;stroke-dashoffset:0;stroke-opacity:1" />
      <path
         id="rect6291"
         d="m 481.25307,463.99946 c -5.54,0 -10,4.84117 -10,10.85547 l 0,30.00195 c 0,0.6692 0.0641,1.31998 0.16992,1.95508 l -1.20898,0 c -1.41244,0 -2.54883,1.45156 -2.54883,3.25586 l 0,2.3418 c 0,1.8043 1.13639,3.25585 2.54883,3.25585 l 10.20312,0 c 0.27622,0.025 0.55366,0.0469 0.83594,0.0469 l 16.54101,0 c 0.28228,0 0.55972,-0.0219 0.83594,-0.0469 l 9.87696,0 c 1.41243,0 2.55078,-1.45155 2.55078,-3.25585 l 0,-2.3418 c 0,-1.8043 -1.13835,-3.25586 -2.55078,-3.25586 l -0.88086,0 c 0.10578,-0.6351 0.16796,-1.28588 0.16796,-1.95508 l 0,-30.00195 c 0,-6.0143 -4.46,-10.85547 -10,-10.85547 l -16.54101,0 z m 18.75391,12.39648 1.7871,0 c 2.216,0 4,1.784 4,4 l 0,19.40625 c 0,2.216 -1.784,4 -4,4 l -1.7871,0 c -2.216,0 -4,-1.784 -4,-4 l 0,-19.40625 c 0,-2.216 1.784,-4 4,-4 z m -21.53321,0.32813 1.78711,0 c 2.216,0 4,1.784 4,4 l 0,19.4043 c 0,2.216 -1.784,4 -4,4 l -1.78711,0 c -2.216,0 -4,-1.784 -4,-4 l 0,-19.4043 c 0,-2.216 1.784,-4 4,-4 z m 10.76563,0.16211 1.78906,0 c 2.216,0 4,1.784 4,4 l 0,19.40625 c 0,2.216 -1.784,4 -4,4 l -1.78906,0 c -2.216,0 -4,-1.784 -4,-4 l 0,-19.40625 c 0,-2.216 1.784,-4 4,-4 z"
         style="opacity:1;fill:#669900;fill-opacity:1;stroke:none;stroke-width:0.96799999;stroke-linecap:round;stroke-linejoin:round;stroke-miterlimit:4;stroke-dasharray:none;stroke-dashoffset:0;stroke-opacity:1"
         inkscape:connector-curvature="0" />
      <path
         sodipodi:nodetypes="cssc"
         inkscape:connector-curvature="0"
         id="path6296"
         d="m 472.55831,471.99234 c 0,0 -1.30505,-10.7667 0.48939,-13.05054 1.79445,-2.28384 29.52679,-2.77323 31.97376,-0.16313 2.44697,2.6101 0.4894,12.07177 0.4894,12.07177"
         style="fill:none;fill-rule:evenodd;stroke:#99cc33;stroke-width:1px;stroke-linecap:butt;stroke-linejoin:miter;stroke-opacity:1" />
    </g>
  </g>
</svg>
